<svg xmlns="http://www.w3.org/2000/svg" viewBox="0 0 100 100">
  <defs>
    <linearGradient id="grad1" x1="0%" y1="0%" x2="100%" y2="100%">
      <stop offset="0%" style="stop-color:#4F46E5;stop-opacity:1" />
      <stop offset="100%" style="stop-color:#7C3AED;stop-opacity:1" />
    </linearGradient>
  </defs>
  
  <!-- Background Circle -->
  <circle cx="50" cy="50" r="48" fill="url(#grad1)"/>
  
  <!-- Stylized "S" Letter -->
  <path d="M 35 25 
           Q 35 20 40 20 
           L 55 20 
           Q 60 20 60 25 
           Q 60 30 55 30 
           L 45 30 
           Q 40 30 40 35 
           L 40 40 
           Q 40 45 45 45 
           L 55 45 
           Q 60 45 60 50 
           Q 60 55 55 55 
           L 45 55 
           Q 40 55 40 60 
           L 40 65 
           Q 40 70 45 70 
           L 60 70 
           Q 65 70 65 75 
           Q 65 80 60 80 
           L 40 80 
           Q 35 80 35 75 
           Z" 
        fill="#FFFFFF" 
        stroke="none"/>
  
  <!-- Accent Dot -->
  <circle cx="65" cy="35" r="4" fill="#FBBF24"/>
</svg>
